<svg width="51" height="39" viewBox="0 0 51 39" fill="none" xmlns="http://www.w3.org/2000/svg">
<path d="M49.5792 0.137085H1.41999C0.693973 0.137085 0.209961 0.621158 0.209961 1.34727V37.6527C0.209961 38.3788 0.693973 38.8629 1.41999 38.8629H49.5792C50.3052 38.8629 50.7892 38.3788 50.7892 37.6527V1.34727C50.7892 0.863194 50.3052 0.137085 49.5792 0.137085ZM45.9491 34.0222H5.2921V4.97781H46.1911V34.0222H45.9491Z" fill="black" fill-opacity="0.38"/>
<path d="M10.3744 30.8753H20.5387H21.9907H30.945H40.1412C41.1092 30.8753 41.8352 29.6652 41.1092 28.939L36.9951 23.8563L31.913 17.8054C31.671 17.5633 31.429 17.3213 30.945 17.3213C30.7029 17.3213 30.2189 17.5633 29.9769 17.8054L26.8308 21.6779L26.5888 21.4359L21.5067 13.6907C21.2647 13.4487 20.7807 13.2067 20.5387 13.2067C20.0546 13.2067 19.8126 13.4487 19.5706 13.6907L14.4885 21.4359L9.64838 28.939C8.92236 29.6652 9.40642 30.8753 10.3744 30.8753Z" fill="black" fill-opacity="0.38"/>
<path d="M38.446 14.4173C40.0499 14.4173 41.35 13.117 41.35 11.5129C41.35 9.90882 40.0499 8.60846 38.446 8.60846C36.8422 8.60846 35.542 9.90882 35.542 11.5129C35.542 13.117 36.8422 14.4173 38.446 14.4173Z" fill="black" fill-opacity="0.38"/>
</svg>
